<mxfile host="app.diagrams.net" modified="2023-11-01T21:15:22.694Z" agent="Mozilla/5.0 (Windows NT 10.0; Win64; x64) AppleWebKit/537.36 (KHTML, like Gecko) Chrome/118.0.0.0 Safari/537.36 Edg/118.0.2088.76" etag="s5q7wmydSIcrnHFNWAgE" version="22.0.8" type="github">
  <diagram id="C5RBs43oDa-KdzZeNtuy" name="Page-1">
    <mxGraphModel dx="870" dy="1650" grid="1" gridSize="10" guides="1" tooltips="1" connect="1" arrows="1" fold="1" page="1" pageScale="1" pageWidth="827" pageHeight="1169" math="0" shadow="0">
      <root>
        <mxCell id="WIyWlLk6GJQsqaUBKTNV-0" />
        <mxCell id="WIyWlLk6GJQsqaUBKTNV-1" parent="WIyWlLk6GJQsqaUBKTNV-0" />
        <mxCell id="WIyWlLk6GJQsqaUBKTNV-2" value="" style="rounded=0;html=1;jettySize=auto;orthogonalLoop=1;fontSize=11;endArrow=block;endFill=0;endSize=8;strokeWidth=1;shadow=0;labelBackgroundColor=none;edgeStyle=orthogonalEdgeStyle;" parent="WIyWlLk6GJQsqaUBKTNV-1" edge="1">
          <mxGeometry relative="1" as="geometry">
            <mxPoint x="219.5" y="60" as="sourcePoint" />
            <mxPoint x="220" y="100" as="targetPoint" />
          </mxGeometry>
        </mxCell>
        <mxCell id="NmAogLTUj9Rs5WcMZJK--0" value="Inicio" style="strokeWidth=2;html=1;shape=mxgraph.flowchart.start_1;whiteSpace=wrap;" vertex="1" parent="WIyWlLk6GJQsqaUBKTNV-1">
          <mxGeometry x="170" width="100" height="60" as="geometry" />
        </mxCell>
        <mxCell id="NmAogLTUj9Rs5WcMZJK--2" style="edgeStyle=orthogonalEdgeStyle;rounded=0;orthogonalLoop=1;jettySize=auto;html=1;" edge="1" parent="WIyWlLk6GJQsqaUBKTNV-1" source="NmAogLTUj9Rs5WcMZJK--1">
          <mxGeometry relative="1" as="geometry">
            <mxPoint x="320" y="130" as="targetPoint" />
          </mxGeometry>
        </mxCell>
        <mxCell id="NmAogLTUj9Rs5WcMZJK--1" value="Saldo" style="html=1;strokeWidth=2;shape=manualInput;whiteSpace=wrap;rounded=1;size=26;arcSize=11;" vertex="1" parent="WIyWlLk6GJQsqaUBKTNV-1">
          <mxGeometry x="170" y="100" width="100" height="60" as="geometry" />
        </mxCell>
        <mxCell id="NmAogLTUj9Rs5WcMZJK--4" style="edgeStyle=orthogonalEdgeStyle;rounded=0;orthogonalLoop=1;jettySize=auto;html=1;" edge="1" parent="WIyWlLk6GJQsqaUBKTNV-1" source="NmAogLTUj9Rs5WcMZJK--3">
          <mxGeometry relative="1" as="geometry">
            <mxPoint x="480" y="170" as="targetPoint" />
          </mxGeometry>
        </mxCell>
        <mxCell id="NmAogLTUj9Rs5WcMZJK--3" value="&quot;Saldo inicial &quot;+saldo" style="strokeWidth=2;html=1;shape=mxgraph.flowchart.display;whiteSpace=wrap;" vertex="1" parent="WIyWlLk6GJQsqaUBKTNV-1">
          <mxGeometry x="320" y="100" width="100" height="60" as="geometry" />
        </mxCell>
        <mxCell id="NmAogLTUj9Rs5WcMZJK--7" style="edgeStyle=orthogonalEdgeStyle;rounded=0;orthogonalLoop=1;jettySize=auto;html=1;" edge="1" parent="WIyWlLk6GJQsqaUBKTNV-1" source="NmAogLTUj9Rs5WcMZJK--6">
          <mxGeometry relative="1" as="geometry">
            <mxPoint x="475" y="240" as="targetPoint" />
          </mxGeometry>
        </mxCell>
        <mxCell id="NmAogLTUj9Rs5WcMZJK--6" value="encerrar = &#39;n&#39;" style="rounded=1;whiteSpace=wrap;html=1;" vertex="1" parent="WIyWlLk6GJQsqaUBKTNV-1">
          <mxGeometry x="420" y="170" width="110" height="30" as="geometry" />
        </mxCell>
        <mxCell id="NmAogLTUj9Rs5WcMZJK--12" style="edgeStyle=orthogonalEdgeStyle;rounded=0;orthogonalLoop=1;jettySize=auto;html=1;entryX=0.5;entryY=0;entryDx=0;entryDy=0;" edge="1" parent="WIyWlLk6GJQsqaUBKTNV-1" source="NmAogLTUj9Rs5WcMZJK--8" target="NmAogLTUj9Rs5WcMZJK--10">
          <mxGeometry relative="1" as="geometry" />
        </mxCell>
        <mxCell id="NmAogLTUj9Rs5WcMZJK--8" value="encerrar = &#39;n&#39;" style="strokeWidth=2;html=1;shape=mxgraph.flowchart.decision;whiteSpace=wrap;" vertex="1" parent="WIyWlLk6GJQsqaUBKTNV-1">
          <mxGeometry x="425" y="250" width="100" height="100" as="geometry" />
        </mxCell>
        <mxCell id="NmAogLTUj9Rs5WcMZJK--14" style="edgeStyle=orthogonalEdgeStyle;rounded=0;orthogonalLoop=1;jettySize=auto;html=1;entryX=0.5;entryY=0;entryDx=0;entryDy=0;" edge="1" parent="WIyWlLk6GJQsqaUBKTNV-1" source="NmAogLTUj9Rs5WcMZJK--10" target="NmAogLTUj9Rs5WcMZJK--13">
          <mxGeometry relative="1" as="geometry" />
        </mxCell>
        <mxCell id="NmAogLTUj9Rs5WcMZJK--10" value="tipo de entrada" style="html=1;strokeWidth=2;shape=manualInput;whiteSpace=wrap;rounded=1;size=26;arcSize=11;" vertex="1" parent="WIyWlLk6GJQsqaUBKTNV-1">
          <mxGeometry x="425" y="380" width="100" height="60" as="geometry" />
        </mxCell>
        <mxCell id="NmAogLTUj9Rs5WcMZJK--13" value="quantidade" style="html=1;strokeWidth=2;shape=manualInput;whiteSpace=wrap;rounded=1;size=26;arcSize=11;" vertex="1" parent="WIyWlLk6GJQsqaUBKTNV-1">
          <mxGeometry x="425" y="470" width="100" height="60" as="geometry" />
        </mxCell>
        <mxCell id="NmAogLTUj9Rs5WcMZJK--23" style="edgeStyle=orthogonalEdgeStyle;rounded=0;orthogonalLoop=1;jettySize=auto;html=1;" edge="1" parent="WIyWlLk6GJQsqaUBKTNV-1" source="NmAogLTUj9Rs5WcMZJK--15">
          <mxGeometry relative="1" as="geometry">
            <mxPoint x="580" y="630" as="targetPoint" />
          </mxGeometry>
        </mxCell>
        <mxCell id="NmAogLTUj9Rs5WcMZJK--28" style="edgeStyle=orthogonalEdgeStyle;rounded=0;orthogonalLoop=1;jettySize=auto;html=1;" edge="1" parent="WIyWlLk6GJQsqaUBKTNV-1" source="NmAogLTUj9Rs5WcMZJK--15">
          <mxGeometry relative="1" as="geometry">
            <mxPoint x="475" y="750" as="targetPoint" />
          </mxGeometry>
        </mxCell>
        <mxCell id="NmAogLTUj9Rs5WcMZJK--15" value="tipo de entrada = 1" style="strokeWidth=2;html=1;shape=mxgraph.flowchart.decision;whiteSpace=wrap;" vertex="1" parent="WIyWlLk6GJQsqaUBKTNV-1">
          <mxGeometry x="412.5" y="570" width="125" height="120" as="geometry" />
        </mxCell>
        <mxCell id="NmAogLTUj9Rs5WcMZJK--16" style="edgeStyle=orthogonalEdgeStyle;rounded=0;orthogonalLoop=1;jettySize=auto;html=1;entryX=0.5;entryY=0;entryDx=0;entryDy=0;entryPerimeter=0;" edge="1" parent="WIyWlLk6GJQsqaUBKTNV-1" source="NmAogLTUj9Rs5WcMZJK--13" target="NmAogLTUj9Rs5WcMZJK--15">
          <mxGeometry relative="1" as="geometry" />
        </mxCell>
        <mxCell id="NmAogLTUj9Rs5WcMZJK--18" value="&lt;p style=&quot;line-height: 150%; font-size: 21px;&quot;&gt;F&lt;/p&gt;" style="text;html=1;align=center;verticalAlign=middle;resizable=0;points=[];autosize=1;strokeColor=none;fillColor=none;rotation=0;" vertex="1" parent="WIyWlLk6GJQsqaUBKTNV-1">
          <mxGeometry x="615" y="210" width="40" height="90" as="geometry" />
        </mxCell>
        <mxCell id="NmAogLTUj9Rs5WcMZJK--21" value="&lt;p style=&quot;line-height: 150%; font-size: 21px;&quot;&gt;V&lt;/p&gt;" style="text;html=1;align=center;verticalAlign=middle;resizable=0;points=[];autosize=1;strokeColor=none;fillColor=none;rotation=0;" vertex="1" parent="WIyWlLk6GJQsqaUBKTNV-1">
          <mxGeometry x="420" y="320" width="40" height="90" as="geometry" />
        </mxCell>
        <mxCell id="NmAogLTUj9Rs5WcMZJK--22" value="&lt;p style=&quot;line-height: 150%; font-size: 21px;&quot;&gt;V&lt;/p&gt;" style="text;html=1;align=center;verticalAlign=middle;resizable=0;points=[];autosize=1;strokeColor=none;fillColor=none;rotation=0;" vertex="1" parent="WIyWlLk6GJQsqaUBKTNV-1">
          <mxGeometry x="537.5" y="560" width="40" height="90" as="geometry" />
        </mxCell>
        <mxCell id="NmAogLTUj9Rs5WcMZJK--25" style="edgeStyle=orthogonalEdgeStyle;rounded=0;orthogonalLoop=1;jettySize=auto;html=1;" edge="1" parent="WIyWlLk6GJQsqaUBKTNV-1" source="NmAogLTUj9Rs5WcMZJK--24">
          <mxGeometry relative="1" as="geometry">
            <mxPoint x="750" y="630" as="targetPoint" />
          </mxGeometry>
        </mxCell>
        <mxCell id="NmAogLTUj9Rs5WcMZJK--24" value="saldo = saldo + quantidade" style="rounded=1;whiteSpace=wrap;html=1;" vertex="1" parent="WIyWlLk6GJQsqaUBKTNV-1">
          <mxGeometry x="590" y="600" width="120" height="60" as="geometry" />
        </mxCell>
        <mxCell id="NmAogLTUj9Rs5WcMZJK--26" value="&quot;Entrada &quot; + quantidade" style="strokeWidth=2;html=1;shape=mxgraph.flowchart.display;whiteSpace=wrap;" vertex="1" parent="WIyWlLk6GJQsqaUBKTNV-1">
          <mxGeometry x="750" y="600" width="100" height="60" as="geometry" />
        </mxCell>
        <mxCell id="NmAogLTUj9Rs5WcMZJK--27" value="" style="endArrow=classic;html=1;rounded=0;exitX=0.58;exitY=1.011;exitDx=0;exitDy=0;exitPerimeter=0;" edge="1" parent="WIyWlLk6GJQsqaUBKTNV-1" source="NmAogLTUj9Rs5WcMZJK--26">
          <mxGeometry width="50" height="50" relative="1" as="geometry">
            <mxPoint x="380" y="700" as="sourcePoint" />
            <mxPoint x="490" y="720" as="targetPoint" />
            <Array as="points">
              <mxPoint x="808" y="720" />
            </Array>
          </mxGeometry>
        </mxCell>
        <mxCell id="NmAogLTUj9Rs5WcMZJK--29" value="&lt;p style=&quot;line-height: 150%; font-size: 21px;&quot;&gt;F&lt;/p&gt;" style="text;html=1;align=center;verticalAlign=middle;resizable=0;points=[];autosize=1;strokeColor=none;fillColor=none;rotation=0;" vertex="1" parent="WIyWlLk6GJQsqaUBKTNV-1">
          <mxGeometry x="425" y="680" width="40" height="90" as="geometry" />
        </mxCell>
        <mxCell id="NmAogLTUj9Rs5WcMZJK--31" style="edgeStyle=orthogonalEdgeStyle;rounded=0;orthogonalLoop=1;jettySize=auto;html=1;" edge="1" parent="WIyWlLk6GJQsqaUBKTNV-1" source="NmAogLTUj9Rs5WcMZJK--30">
          <mxGeometry relative="1" as="geometry">
            <mxPoint x="570" y="810" as="targetPoint" />
          </mxGeometry>
        </mxCell>
        <mxCell id="NmAogLTUj9Rs5WcMZJK--47" style="edgeStyle=orthogonalEdgeStyle;rounded=0;orthogonalLoop=1;jettySize=auto;html=1;" edge="1" parent="WIyWlLk6GJQsqaUBKTNV-1" source="NmAogLTUj9Rs5WcMZJK--30">
          <mxGeometry relative="1" as="geometry">
            <mxPoint x="475" y="1080" as="targetPoint" />
          </mxGeometry>
        </mxCell>
        <mxCell id="NmAogLTUj9Rs5WcMZJK--30" value="tipo entrada = 2" style="strokeWidth=2;html=1;shape=mxgraph.flowchart.decision;whiteSpace=wrap;" vertex="1" parent="WIyWlLk6GJQsqaUBKTNV-1">
          <mxGeometry x="425" y="760" width="100" height="100" as="geometry" />
        </mxCell>
        <mxCell id="NmAogLTUj9Rs5WcMZJK--32" value="&lt;p style=&quot;line-height: 150%; font-size: 21px;&quot;&gt;V&lt;/p&gt;" style="text;html=1;align=center;verticalAlign=middle;resizable=0;points=[];autosize=1;strokeColor=none;fillColor=none;rotation=0;" vertex="1" parent="WIyWlLk6GJQsqaUBKTNV-1">
          <mxGeometry x="525" y="750" width="40" height="90" as="geometry" />
        </mxCell>
        <mxCell id="NmAogLTUj9Rs5WcMZJK--36" style="edgeStyle=orthogonalEdgeStyle;rounded=0;orthogonalLoop=1;jettySize=auto;html=1;" edge="1" parent="WIyWlLk6GJQsqaUBKTNV-1" source="NmAogLTUj9Rs5WcMZJK--33">
          <mxGeometry relative="1" as="geometry">
            <mxPoint x="627.5" y="920" as="targetPoint" />
          </mxGeometry>
        </mxCell>
        <mxCell id="NmAogLTUj9Rs5WcMZJK--38" style="edgeStyle=orthogonalEdgeStyle;rounded=0;orthogonalLoop=1;jettySize=auto;html=1;" edge="1" parent="WIyWlLk6GJQsqaUBKTNV-1" source="NmAogLTUj9Rs5WcMZJK--33">
          <mxGeometry relative="1" as="geometry">
            <mxPoint x="730" y="810" as="targetPoint" />
          </mxGeometry>
        </mxCell>
        <mxCell id="NmAogLTUj9Rs5WcMZJK--33" value="saldo &amp;gt;= quantidade" style="strokeWidth=2;html=1;shape=mxgraph.flowchart.decision;whiteSpace=wrap;" vertex="1" parent="WIyWlLk6GJQsqaUBKTNV-1">
          <mxGeometry x="577.5" y="760" width="100" height="100" as="geometry" />
        </mxCell>
        <mxCell id="NmAogLTUj9Rs5WcMZJK--34" value="&lt;p style=&quot;line-height: 150%; font-size: 21px;&quot;&gt;F&lt;/p&gt;" style="text;html=1;align=center;verticalAlign=middle;resizable=0;points=[];autosize=1;strokeColor=none;fillColor=none;rotation=0;" vertex="1" parent="WIyWlLk6GJQsqaUBKTNV-1">
          <mxGeometry x="577.5" y="840" width="40" height="90" as="geometry" />
        </mxCell>
        <mxCell id="NmAogLTUj9Rs5WcMZJK--37" value="&quot;Saldo insuficiente&quot;" style="strokeWidth=2;html=1;shape=mxgraph.flowchart.display;whiteSpace=wrap;" vertex="1" parent="WIyWlLk6GJQsqaUBKTNV-1">
          <mxGeometry x="577.5" y="920" width="100" height="60" as="geometry" />
        </mxCell>
        <mxCell id="NmAogLTUj9Rs5WcMZJK--39" value="&lt;p style=&quot;line-height: 150%; font-size: 21px;&quot;&gt;V&lt;/p&gt;" style="text;html=1;align=center;verticalAlign=middle;resizable=0;points=[];autosize=1;strokeColor=none;fillColor=none;rotation=0;" vertex="1" parent="WIyWlLk6GJQsqaUBKTNV-1">
          <mxGeometry x="677.5" y="750" width="40" height="90" as="geometry" />
        </mxCell>
        <mxCell id="NmAogLTUj9Rs5WcMZJK--42" style="edgeStyle=orthogonalEdgeStyle;rounded=0;orthogonalLoop=1;jettySize=auto;html=1;" edge="1" parent="WIyWlLk6GJQsqaUBKTNV-1" source="NmAogLTUj9Rs5WcMZJK--41" target="NmAogLTUj9Rs5WcMZJK--43">
          <mxGeometry relative="1" as="geometry">
            <mxPoint x="790" y="920" as="targetPoint" />
          </mxGeometry>
        </mxCell>
        <mxCell id="NmAogLTUj9Rs5WcMZJK--41" value="saldo = saldo - quantidade" style="rounded=1;whiteSpace=wrap;html=1;" vertex="1" parent="WIyWlLk6GJQsqaUBKTNV-1">
          <mxGeometry x="730" y="780" width="120" height="60" as="geometry" />
        </mxCell>
        <mxCell id="NmAogLTUj9Rs5WcMZJK--43" value="&quot;Saída&quot;&amp;nbsp; + quantidade" style="strokeWidth=2;html=1;shape=mxgraph.flowchart.display;whiteSpace=wrap;" vertex="1" parent="WIyWlLk6GJQsqaUBKTNV-1">
          <mxGeometry x="740" y="920" width="100" height="60" as="geometry" />
        </mxCell>
        <mxCell id="NmAogLTUj9Rs5WcMZJK--44" value="" style="endArrow=classic;html=1;rounded=0;exitX=0.5;exitY=1;exitDx=0;exitDy=0;exitPerimeter=0;" edge="1" parent="WIyWlLk6GJQsqaUBKTNV-1" source="NmAogLTUj9Rs5WcMZJK--43">
          <mxGeometry width="50" height="50" relative="1" as="geometry">
            <mxPoint x="530" y="910" as="sourcePoint" />
            <mxPoint x="500" y="1040" as="targetPoint" />
            <Array as="points">
              <mxPoint x="790" y="1040" />
            </Array>
          </mxGeometry>
        </mxCell>
        <mxCell id="NmAogLTUj9Rs5WcMZJK--45" value="" style="endArrow=classic;html=1;rounded=0;exitX=0.5;exitY=1;exitDx=0;exitDy=0;exitPerimeter=0;" edge="1" parent="WIyWlLk6GJQsqaUBKTNV-1" source="NmAogLTUj9Rs5WcMZJK--37">
          <mxGeometry width="50" height="50" relative="1" as="geometry">
            <mxPoint x="530" y="910" as="sourcePoint" />
            <mxPoint x="500" y="1020" as="targetPoint" />
            <Array as="points">
              <mxPoint x="628" y="1020" />
            </Array>
          </mxGeometry>
        </mxCell>
        <mxCell id="NmAogLTUj9Rs5WcMZJK--46" value="&lt;p style=&quot;line-height: 150%; font-size: 21px;&quot;&gt;F&lt;/p&gt;" style="text;html=1;align=center;verticalAlign=middle;resizable=0;points=[];autosize=1;strokeColor=none;fillColor=none;rotation=0;" vertex="1" parent="WIyWlLk6GJQsqaUBKTNV-1">
          <mxGeometry x="414" y="920" width="40" height="90" as="geometry" />
        </mxCell>
        <mxCell id="NmAogLTUj9Rs5WcMZJK--49" style="edgeStyle=orthogonalEdgeStyle;rounded=0;orthogonalLoop=1;jettySize=auto;html=1;" edge="1" parent="WIyWlLk6GJQsqaUBKTNV-1" source="NmAogLTUj9Rs5WcMZJK--48">
          <mxGeometry relative="1" as="geometry">
            <mxPoint x="475" y="1180" as="targetPoint" />
          </mxGeometry>
        </mxCell>
        <mxCell id="NmAogLTUj9Rs5WcMZJK--48" value="saldo" style="strokeWidth=2;html=1;shape=mxgraph.flowchart.display;whiteSpace=wrap;" vertex="1" parent="WIyWlLk6GJQsqaUBKTNV-1">
          <mxGeometry x="425" y="1090" width="100" height="60" as="geometry" />
        </mxCell>
        <mxCell id="NmAogLTUj9Rs5WcMZJK--50" value="encerrar ? (s/n)" style="html=1;strokeWidth=2;shape=manualInput;whiteSpace=wrap;rounded=1;size=26;arcSize=11;" vertex="1" parent="WIyWlLk6GJQsqaUBKTNV-1">
          <mxGeometry x="425" y="1180" width="100" height="60" as="geometry" />
        </mxCell>
        <mxCell id="NmAogLTUj9Rs5WcMZJK--52" style="edgeStyle=orthogonalEdgeStyle;rounded=0;orthogonalLoop=1;jettySize=auto;html=1;" edge="1" parent="WIyWlLk6GJQsqaUBKTNV-1" source="NmAogLTUj9Rs5WcMZJK--51" target="NmAogLTUj9Rs5WcMZJK--53">
          <mxGeometry relative="1" as="geometry">
            <mxPoint x="475" y="1400" as="targetPoint" />
          </mxGeometry>
        </mxCell>
        <mxCell id="NmAogLTUj9Rs5WcMZJK--51" value="&quot;Sistema encerrado&quot;" style="strokeWidth=2;html=1;shape=mxgraph.flowchart.display;whiteSpace=wrap;" vertex="1" parent="WIyWlLk6GJQsqaUBKTNV-1">
          <mxGeometry x="425" y="1290" width="100" height="60" as="geometry" />
        </mxCell>
        <mxCell id="NmAogLTUj9Rs5WcMZJK--53" value="Fim" style="strokeWidth=2;html=1;shape=mxgraph.flowchart.terminator;whiteSpace=wrap;" vertex="1" parent="WIyWlLk6GJQsqaUBKTNV-1">
          <mxGeometry x="425" y="1370" width="100" height="60" as="geometry" />
        </mxCell>
        <mxCell id="NmAogLTUj9Rs5WcMZJK--54" value="" style="endArrow=classic;html=1;rounded=0;entryX=1;entryY=0.5;entryDx=0;entryDy=0;entryPerimeter=0;" edge="1" parent="WIyWlLk6GJQsqaUBKTNV-1" target="NmAogLTUj9Rs5WcMZJK--51">
          <mxGeometry width="50" height="50" relative="1" as="geometry">
            <mxPoint x="910" y="300" as="sourcePoint" />
            <mxPoint x="570" y="1220" as="targetPoint" />
            <Array as="points">
              <mxPoint x="910" y="1320" />
              <mxPoint x="730" y="1320" />
            </Array>
          </mxGeometry>
        </mxCell>
        <mxCell id="NmAogLTUj9Rs5WcMZJK--56" value="" style="endArrow=none;html=1;rounded=0;exitX=1;exitY=0.5;exitDx=0;exitDy=0;exitPerimeter=0;" edge="1" parent="WIyWlLk6GJQsqaUBKTNV-1" source="NmAogLTUj9Rs5WcMZJK--8">
          <mxGeometry width="50" height="50" relative="1" as="geometry">
            <mxPoint x="730" y="390" as="sourcePoint" />
            <mxPoint x="910" y="300" as="targetPoint" />
          </mxGeometry>
        </mxCell>
        <mxCell id="NmAogLTUj9Rs5WcMZJK--57" style="edgeStyle=orthogonalEdgeStyle;rounded=0;orthogonalLoop=1;jettySize=auto;html=1;entryX=0;entryY=0.5;entryDx=0;entryDy=0;entryPerimeter=0;" edge="1" parent="WIyWlLk6GJQsqaUBKTNV-1" source="NmAogLTUj9Rs5WcMZJK--50" target="NmAogLTUj9Rs5WcMZJK--8">
          <mxGeometry relative="1" as="geometry">
            <Array as="points">
              <mxPoint x="400" y="1210" />
              <mxPoint x="400" y="300" />
            </Array>
          </mxGeometry>
        </mxCell>
      </root>
    </mxGraphModel>
  </diagram>
</mxfile>
